<?xml version="1.0" standalone="no"?>
<!DOCTYPE svg PUBLIC "-//W3C//DTD SVG 20010904//EN"
 "http://www.w3.org/TR/2001/REC-SVG-20010904/DTD/svg10.dtd">
<svg version="1.0" xmlns="http://www.w3.org/2000/svg"
 width="186.000000pt" height="186.000000pt" viewBox="0 0 186.000000 186.000000"
 preserveAspectRatio="xMidYMid meet">
<metadata>
Created by potrace 1.14, written by Peter Selinger 2001-2017
</metadata>
<g transform="translate(0.000000,186.000000) scale(0.100000,-0.100000)"
fill="#000000" stroke="none">
<path d="M374 1588 c-11 -17 -9 -1288 2 -1297 5 -4 70 -25 144 -45 l135 -37
132 35 132 35 129 -35 130 -35 133 36 c74 20 140 42 147 47 9 8 12 76 12 279
0 208 3 269 13 269 19 1 90 10 115 16 21 4 22 8 22 112 l0 108 -72 35 c-48 23
-74 41 -77 54 -3 19 -3 20 17 2 26 -24 90 -32 121 -15 77 41 86 149 18 196
-42 28 -96 29 -131 1 l-26 -20 0 124 c0 98 -3 127 -15 137 -12 10 -40 6 -146
-23 l-131 -36 -130 35 -130 34 -130 -34 -131 -35 -127 34 c-143 39 -146 40
-156 23z m246 -113 c3 -2 7 -272 7 -600 1 -508 -1 -595 -13 -591 -8 3 -53 16
-99 28 l-85 22 0 597 0 597 92 -25 c50 -13 94 -26 98 -28z m266 -539 c-1 -327
-3 -597 -6 -599 -3 -3 -47 -16 -97 -30 l-93 -26 0 597 0 597 93 27 c50 14 95
27 98 27 3 1 5 -266 5 -593z m174 562 c41 -11 77 -22 80 -25 3 -2 5 -271 6
-597 l1 -593 -31 7 c-17 4 -61 16 -98 26 l-68 18 0 599 c0 567 1 599 18 592 9
-4 51 -16 92 -27z m346 -270 l-1 -303 -30 -5 c-21 -4 -30 -11 -29 -23 1 -9 2
-28 3 -42 1 -21 6 -25 30 -25 l28 0 -1 -247 -1 -247 -65 -18 c-36 -10 -78 -22
-94 -28 -16 -5 -31 -8 -33 -6 -3 3 -5 602 -3 1086 l0 105 93 27 c50 14 95 27
98 27 3 1 5 -135 5 -301z m154 -277 c0 -20 -17 -37 -27 -28 -7 8 7 47 18 47 5
0 9 -9 9 -19z"/>
</g>
</svg>
